<svg xmlns="http://www.w3.org/2000/svg" width="227.082" height="28.396" viewBox="0 0 227.082 28.396">
  <path id="Path_1788" data-name="Path 1788" d="M-208.406-33.975v9.017h-6.169V-52.246h10.085q5.537,0,7.89,2.116t2.353,7.02v.079q0,6.328-5.537,8.265l6.486,9.808h-6.6l-5.893-9.017Zm-.079-5.339h4.034a4.351,4.351,0,0,0,3.144-.929,3.787,3.787,0,0,0,.929-2.788v-.079a3.647,3.647,0,0,0-.929-2.749,4.481,4.481,0,0,0-3.144-.89h-4.034Zm37.333-12.932v5.378h-12.023v5.22h10.836v5.379h-10.836v5.932h12.181v5.378h-18.271V-52.246ZM-156.123-32l5.774-20.248h6.407l-8.819,27.288h-6.8l-8.819-27.288h6.407L-156.2-32Zm33.695-20.248v5.378h-12.023v5.22h10.836v5.379h-10.836v5.932h12.181v5.378h-18.271V-52.246Zm21.593,21.672v5.616h-16.531V-52.246h6.169v21.672Zm14.83-5.458-2.808-.435q-4.588-.672-6.8-2.531t-2.215-5.774v-.079q0-7.949,10.085-7.949,5.3,0,7.692,2.017t2.63,6.169h-5.932a2.993,2.993,0,0,0-1.028-2.116,5.286,5.286,0,0,0-3.322-.771q-4.153,0-4.153,2.492v.079a2.271,2.271,0,0,0,.929,1.9A6.747,6.747,0,0,0-87.9-42l2.847.435q4.627.712,6.565,2.63A7.592,7.592,0,0,1-76.553-33.3v.079q0,8.819-10.6,8.819-5.537,0-8.265-2.314T-98.3-33.936h5.932q.4,4.232,5.22,4.232a6.378,6.378,0,0,0,3.559-.751,2.878,2.878,0,0,0,1.068-2.531v-.079a2.565,2.565,0,0,0-.732-1.958A5.312,5.312,0,0,0-86.005-36.032Zm28.989-5.695v-10.52h6.169v27.288h-6.169V-36.111h-8.859v11.152h-6.169V-52.246h6.169v10.52Zm18.152-10.52v27.288h-6.169V-52.246Zm27.407,0v27.288h-5.458L-26.921-41.252H-27v16.294h-6.051V-52.246h5.458l10.006,16.294h.079V-52.246Zm23.808,0v5.378H.328v5.22H11.164v5.379H.328v5.932H12.508v5.378H-5.763V-52.246Z" transform="translate(214.574 52.8)" fill="#fff"/>
</svg>
