<svg id="Group_1360" data-name="Group 1360" xmlns="http://www.w3.org/2000/svg" width="43" height="43" viewBox="0 0 43 43">
  <path id="Path_1767" data-name="Path 1767" d="M21.5,0A21.5,21.5,0,1,1,0,21.5,21.5,21.5,0,0,1,21.5,0Z" fill="#fff"/>
  <path id="Icon_awesome-instagram" data-name="Icon awesome-instagram" d="M11.291,7.739a5.79,5.79,0,1,0,5.79,5.79A5.781,5.781,0,0,0,11.291,7.739Zm0,9.554a3.764,3.764,0,1,1,3.764-3.764,3.771,3.771,0,0,1-3.764,3.764ZM18.668,7.5a1.35,1.35,0,1,1-1.35-1.35A1.347,1.347,0,0,1,18.668,7.5ZM22.5,8.873a6.683,6.683,0,0,0-1.824-4.732,6.727,6.727,0,0,0-4.732-1.824c-1.864-.106-7.453-.106-9.317,0A6.717,6.717,0,0,0,1.9,4.136,6.705,6.705,0,0,0,.074,8.868c-.106,1.864-.106,7.453,0,9.317A6.683,6.683,0,0,0,1.9,22.917,6.736,6.736,0,0,0,6.63,24.741c1.864.106,7.453.106,9.317,0a6.683,6.683,0,0,0,4.732-1.824A6.727,6.727,0,0,0,22.5,18.185c.106-1.864.106-7.448,0-9.312ZM20.094,20.186a3.811,3.811,0,0,1-2.147,2.147c-1.487.59-5.014.454-6.657.454s-5.175.131-6.657-.454a3.811,3.811,0,0,1-2.147-2.147c-.59-1.487-.454-5.014-.454-6.657S1.9,8.354,2.488,6.872A3.811,3.811,0,0,1,4.634,4.726c1.487-.59,5.014-.454,6.657-.454s5.175-.131,6.657.454a3.811,3.811,0,0,1,2.147,2.147c.59,1.487.454,5.014.454,6.657S20.684,18.7,20.094,20.186Z" transform="translate(10.211 7.971)" fill="#ee712e"/>
</svg>
